<!DOCTYPE svg PUBLIC "-//W3C//DTD SVG 20010904//EN" "http://www.w3.org/TR/2001/REC-SVG-20010904/DTD/svg10.dtd">
<svg version="1.0" xmlns="http://www.w3.org/2000/svg" width="64px" height="64px" viewBox="0 0 640 640" preserveAspectRatio="xMidYMid meet">
<g id="layer101" fill="#5f4b8b" stroke="none">
 <path d="M0 320 l0 -320 320 0 320 0 0 320 0 320 -320 0 -320 0 0 -320z"/>
 </g>
<g id="layer102" fill="#ffffff" stroke="none">
 <path d="M92 538 c-17 -17 -17 -409 0 -426 15 -15 51 -15 66 0 9 9 12 70 12 213 0 211 -3 225 -45 225 -12 0 -26 -5 -33 -12z"/>
 <path d="M213 543 c-19 -7 -16 -70 3 -77 27 -10 294 -7 315 4 25 14 25 56 0 70 -20 10 -294 13 -318 3z"/>
 <path d="M213 363 c-19 -7 -16 -70 3 -77 27 -10 294 -7 315 4 25 14 25 56 0 70 -20 10 -294 13 -318 3z"/>
 <path d="M213 183 c-19 -7 -16 -70 3 -77 27 -10 294 -7 315 4 25 14 25 56 0 70 -20 10 -294 13 -318 3z"/>
 </g>

</svg>