<!DOCTYPE svg PUBLIC "-//W3C//DTD SVG 20010904//EN" "http://www.w3.org/TR/2001/REC-SVG-20010904/DTD/svg10.dtd">
<svg version="1.0" xmlns="http://www.w3.org/2000/svg" width="64px" height="64px" viewBox="0 0 640 640" preserveAspectRatio="xMidYMid meet">
<g id="layer101" fill="#ff0b11" stroke="none">
<path d="M0 320 l0 -320 320 0 320 0 0 320 0 320 -320 0 -320 0 0 -320z"/>
</g>
<g id="layer102" fill="#5f4b8b" stroke="none">
<path d="M0 320 l0 -320 320 0 320 0 0 320 0 320 -320 0 -320 0 0 -320z m538 -90 c80 -49 59 -163 -35 -186 -58 -15 -133 39 -133 96 0 42 15 67 53 90 41 25 74 25 115 0z"/>
</g>
<g id="layer103" fill="#ff7f27" stroke="none">
<path d="M425 242 c-16 -11 -36 -26 -44 -35 -10 -13 -30 -17 -85 -17 -76 0 -96 -9 -96 -45 0 -35 20 -45 93 -45 63 0 73 -3 103 -30 58 -50 107 -52 163 -4 58 48 50 126 -18 171 -41 28 -76 29 -116 5z m113 -12 c80 -49 59 -163 -35 -186 -58 -15 -133 39 -133 96 0 42 15 67 53 90 41 25 74 25 115 0z"/>
</g>
<g id="layer104" fill="#fbfbfc" stroke="none">
<path d="M93 538 c-11 -18 -16 -357 -6 -399 7 -27 15 -35 36 -37 21 -3 29 2 37 23 13 34 13 366 0 399 -10 28 -52 36 -67 14z"/>
<path d="M213 539 c-17 -18 -16 -54 2 -69 23 -19 313 -10 325 10 12 19 12 31 0 50 -13 21 -308 28 -327 9z"/>
<path d="M213 359 c-17 -18 -16 -54 2 -69 23 -19 313 -10 325 10 12 19 12 31 0 50 -13 21 -308 28 -327 9z"/>
<path d="M212 178 c-15 -15 -15 -51 0 -66 7 -7 41 -12 82 -12 l71 0 0 45 0 45 -70 0 c-42 0 -76 -5 -83 -12z"/>
</g>


</svg>